<svg width="64" height="64" viewBox="0 0 64 64" fill="none" xmlns="http://www.w3.org/2000/svg">
  <rect width="64" height="64" rx="20" fill="#071822"/>
  <path d="M22.2222 16C18.7858 16 16 18.7858 16 22.2222V41.7778C16 45.2142 18.7858 48 22.2222 48H41.7778C45.2142 48 48 45.2142 48 41.7778V22.2222C48 18.7858 45.2142 16 41.7778 16H22.2222Z" fill="url(#paint0_linear_14_6)"/>
  <path d="M30.7746 21.2331C32.4621 19.5456 35.1985 19.5456 36.886 21.2331L42.7669 27.114C44.4544 28.8015 44.4544 31.5379 42.7669 33.2254L33.2254 42.7669C31.5379 44.4544 28.8015 44.4544 27.114 42.7669L21.2331 36.886C19.5456 35.1985 19.5456 32.4621 21.2331 30.7746L30.7746 21.2331Z" fill="#071822" fill-opacity="0.72"/>
  <path d="M30.431 22.5448C31.3939 21.5819 32.9552 21.5819 33.9181 22.5448L41.4552 30.0819C42.4181 31.0448 42.4181 32.6061 41.4552 33.569L33.569 41.4552C32.6061 42.4181 31.0448 42.4181 30.0819 41.4552L22.5448 33.9181C21.5819 32.9552 21.5819 31.3939 22.5448 30.431L30.431 22.5448Z" fill="#DFFFFA"/>
  <defs>
    <linearGradient id="paint0_linear_14_6" x1="18.6667" y1="16" x2="44.4444" y2="48" gradientUnits="userSpaceOnUse">
      <stop stop-color="#12B3A0"/>
      <stop offset="1" stop-color="#B7FFF5"/>
    </linearGradient>
  </defs>
</svg>
